<svg fill="#c6cccf" height="30px" viewBox="0 -59 512 512" width="30px" xmlns="http://www.w3.org/2000/svg"><g fill-rule="evenodd"><path d="m502 0h-492c-5.523438 0-10 4.476562-10 10v374.59375c0 5.519531 4.476562 10 10 10h492c5.523438 0 10-4.480469 10-10v-374.59375c0-5.523438-4.476562-10-10-10zm-10 374.59375h-472v-354.59375h472zm0 0"/><path d="m52.113281 352.480469h407.773438c5.523437 0 10-4.476563 10-10v-290.367188c0-5.523437-4.480469-10-10-10h-407.773438c-5.523437 0-10 4.476563-10 10v242.757813.011718 47.597657c0 5.523437 4.476563 10 10 10zm10-290.367188h387.773438v231.734375l-26.714844-27.328125c-3.859375-3.949219-10.191406-4.023437-14.140625-.160156-3.949219 3.859375-4.023438 10.191406-.164062 14.140625l41.019531 41.964844v10.015625h-277.085938l143.4375-146.746094 36.714844 37.5625c3.863281 3.945313 10.191406 4.019531 14.144531.160156 3.949219-3.859375 4.019532-10.191406.160156-14.144531l-43.867187-44.875c-1.882813-1.925781-4.460937-3.011719-7.152344-3.011719-2.6875 0-5.269531 1.085938-7.148437 3.011719l-97.78125 100.039062-64.398438-64.398437c-1.875-1.875-4.417968-2.929687-7.070312-2.929687s-5.195313 1.054687-7.070313 2.929687l-70.65625 70.65625zm0 236.90625 77.726563-77.730469 57.484375 57.488282-52.492188 53.703125h-82.722656v-33.460938zm0 0"/><path d="m209.96875 181.695312c24.269531 0 44.019531-19.75 44.019531-44.019531 0-24.277343-19.75-44.023437-44.019531-44.023437-24.273438 0-44.023438 19.746094-44.023438 44.023437 0 24.269531 19.746094 44.019531 44.023438 44.019531zm0-68.042968c13.242188 0 24.019531 10.777344 24.019531 24.023437 0 13.242188-10.773437 24.019531-24.019531 24.019531s-24.023438-10.777343-24.023438-24.019531c0-13.246093 10.777344-24.023437 24.023438-24.023437zm0 0"/><path d="m388.0625 254.90625c5.507812 0 10-4.492188 10-10s-4.492188-10-10-10-10 4.492188-10 10 4.492188 10 10 10zm0 0"/></g></svg>
